<mxfile host="app.diagrams.net" modified="2023-05-03T07:34:44.749Z" agent="Mozilla/5.0 (Windows NT 10.0; Win64; x64) AppleWebKit/537.36 (KHTML, like Gecko) Chrome/112.0.0.0 Safari/537.36" etag="LF78W4PeXtcL_A93wPhp" version="21.2.6" type="google">
  <diagram name="Pagina-1" id="dOlIz92dstisK2xR_fbI">
    <mxGraphModel grid="1" page="1" gridSize="10" guides="1" tooltips="1" connect="1" arrows="1" fold="1" pageScale="1" pageWidth="827" pageHeight="1169" math="0" shadow="0">
      <root>
        <mxCell id="0" />
        <mxCell id="1" parent="0" />
        <mxCell id="5pxPT2uvrY_Y2_SfrgNt-2" style="edgeStyle=orthogonalEdgeStyle;rounded=0;orthogonalLoop=1;jettySize=auto;html=1;" edge="1" parent="1" source="5pxPT2uvrY_Y2_SfrgNt-1">
          <mxGeometry relative="1" as="geometry">
            <mxPoint x="150" y="240" as="targetPoint" />
          </mxGeometry>
        </mxCell>
        <mxCell id="5pxPT2uvrY_Y2_SfrgNt-1" value="" style="shape=waypoint;sketch=0;fillStyle=solid;size=6;pointerEvents=1;points=[];fillColor=none;resizable=0;rotatable=0;perimeter=centerPerimeter;snapToPoint=1;" vertex="1" parent="1">
          <mxGeometry x="20" y="230" width="20" height="20" as="geometry" />
        </mxCell>
        <mxCell id="5pxPT2uvrY_Y2_SfrgNt-4" value="" style="rounded=0;whiteSpace=wrap;html=1;" vertex="1" parent="1">
          <mxGeometry x="80" y="210" width="130" height="60" as="geometry" />
        </mxCell>
        <mxCell id="r9xJ9RGRWZH5357-9bB4-6" style="edgeStyle=orthogonalEdgeStyle;rounded=0;orthogonalLoop=1;jettySize=auto;html=1;entryX=0;entryY=0.5;entryDx=0;entryDy=0;" edge="1" parent="1" source="5pxPT2uvrY_Y2_SfrgNt-5" target="r9xJ9RGRWZH5357-9bB4-4">
          <mxGeometry relative="1" as="geometry" />
        </mxCell>
        <mxCell id="5pxPT2uvrY_Y2_SfrgNt-5" value="stampa a schermo&lt;br&gt;&quot;inserisci dati anagrifici&quot;" style="text;html=1;align=center;verticalAlign=middle;resizable=0;points=[];autosize=1;strokeColor=none;fillColor=none;" vertex="1" parent="1">
          <mxGeometry x="70" y="220" width="150" height="40" as="geometry" />
        </mxCell>
        <mxCell id="5pxPT2uvrY_Y2_SfrgNt-10" style="edgeStyle=orthogonalEdgeStyle;rounded=0;orthogonalLoop=1;jettySize=auto;html=1;entryX=-0.05;entryY=0.5;entryDx=0;entryDy=0;entryPerimeter=0;" edge="1" parent="1" source="5pxPT2uvrY_Y2_SfrgNt-8">
          <mxGeometry relative="1" as="geometry">
            <mxPoint x="724" y="225" as="targetPoint" />
          </mxGeometry>
        </mxCell>
        <mxCell id="5pxPT2uvrY_Y2_SfrgNt-11" style="edgeStyle=orthogonalEdgeStyle;rounded=0;orthogonalLoop=1;jettySize=auto;html=1;entryX=0.446;entryY=-0.083;entryDx=0;entryDy=0;entryPerimeter=0;" edge="1" parent="1" source="5pxPT2uvrY_Y2_SfrgNt-8" target="5pxPT2uvrY_Y2_SfrgNt-4">
          <mxGeometry relative="1" as="geometry">
            <mxPoint x="220" y="90" as="targetPoint" />
            <Array as="points">
              <mxPoint x="410" y="90" />
              <mxPoint x="208" y="90" />
            </Array>
          </mxGeometry>
        </mxCell>
        <mxCell id="5pxPT2uvrY_Y2_SfrgNt-8" value="errore" style="rhombus;whiteSpace=wrap;html=1;" vertex="1" parent="1">
          <mxGeometry x="510" y="170" width="100" height="120" as="geometry" />
        </mxCell>
        <mxCell id="5pxPT2uvrY_Y2_SfrgNt-15" value="si" style="text;html=1;align=center;verticalAlign=middle;resizable=0;points=[];autosize=1;strokeColor=none;fillColor=none;" vertex="1" parent="1">
          <mxGeometry x="300" y="50" width="30" height="30" as="geometry" />
        </mxCell>
        <mxCell id="5pxPT2uvrY_Y2_SfrgNt-16" value="no" style="text;html=1;align=center;verticalAlign=middle;resizable=0;points=[];autosize=1;strokeColor=none;fillColor=none;" vertex="1" parent="1">
          <mxGeometry x="630" y="225" width="40" height="30" as="geometry" />
        </mxCell>
        <mxCell id="r9xJ9RGRWZH5357-9bB4-7" style="edgeStyle=orthogonalEdgeStyle;rounded=0;orthogonalLoop=1;jettySize=auto;html=1;" edge="1" parent="1" source="r9xJ9RGRWZH5357-9bB4-4" target="5pxPT2uvrY_Y2_SfrgNt-8">
          <mxGeometry relative="1" as="geometry" />
        </mxCell>
        <mxCell id="r9xJ9RGRWZH5357-9bB4-4" value="&lt;font style=&quot;vertical-align: inherit;&quot;&gt;&lt;font style=&quot;vertical-align: inherit;&quot;&gt;Presi in input&quot;dati anagrafici&quot;&lt;/font&gt;&lt;/font&gt;" style="rounded=0;whiteSpace=wrap;html=1;" vertex="1" parent="1">
          <mxGeometry x="294" y="210" width="120" height="70" as="geometry" />
        </mxCell>
        <mxCell id="r9xJ9RGRWZH5357-9bB4-9" style="edgeStyle=orthogonalEdgeStyle;rounded=0;orthogonalLoop=1;jettySize=auto;html=1;entryX=0.5;entryY=1;entryDx=0;entryDy=0;" edge="1" parent="1" source="r9xJ9RGRWZH5357-9bB4-8" target="r9xJ9RGRWZH5357-9bB4-10">
          <mxGeometry relative="1" as="geometry">
            <mxPoint x="910" y="220" as="targetPoint" />
          </mxGeometry>
        </mxCell>
        <mxCell id="r9xJ9RGRWZH5357-9bB4-11" style="edgeStyle=orthogonalEdgeStyle;rounded=0;orthogonalLoop=1;jettySize=auto;html=1;entryX=0.75;entryY=0;entryDx=0;entryDy=0;" edge="1" parent="1" source="r9xJ9RGRWZH5357-9bB4-8" target="r9xJ9RGRWZH5357-9bB4-12">
          <mxGeometry relative="1" as="geometry">
            <mxPoint x="770" y="380" as="targetPoint" />
          </mxGeometry>
        </mxCell>
        <mxCell id="r9xJ9RGRWZH5357-9bB4-8" value="&lt;font style=&quot;vertical-align: inherit;&quot;&gt;&lt;font style=&quot;vertical-align: inherit;&quot;&gt;&lt;font style=&quot;vertical-align: inherit;&quot;&gt;&lt;font style=&quot;vertical-align: inherit;&quot;&gt;&lt;font style=&quot;vertical-align: inherit;&quot;&gt;&lt;font style=&quot;vertical-align: inherit;&quot;&gt;insegnante?&lt;/font&gt;&lt;/font&gt;&lt;/font&gt;&lt;/font&gt;&lt;/font&gt;&lt;/font&gt;" style="rhombus;whiteSpace=wrap;html=1;" vertex="1" parent="1">
          <mxGeometry x="720" y="180" width="80" height="80" as="geometry" />
        </mxCell>
        <mxCell id="r9xJ9RGRWZH5357-9bB4-10" value="&lt;font style=&quot;vertical-align: inherit;&quot;&gt;&lt;font style=&quot;vertical-align: inherit;&quot;&gt;Registrazione come insegnante&lt;/font&gt;&lt;/font&gt;" style="rounded=0;whiteSpace=wrap;html=1;" vertex="1" parent="1">
          <mxGeometry x="660" y="20" width="120" height="60" as="geometry" />
        </mxCell>
        <mxCell id="r9xJ9RGRWZH5357-9bB4-12" value="&lt;font style=&quot;vertical-align: inherit;&quot;&gt;&lt;font style=&quot;vertical-align: inherit;&quot;&gt;Registrazione come studente&lt;/font&gt;&lt;/font&gt;" style="rounded=0;whiteSpace=wrap;html=1;" vertex="1" parent="1">
          <mxGeometry x="610" y="350" width="120" height="60" as="geometry" />
        </mxCell>
        <mxCell id="r9xJ9RGRWZH5357-9bB4-13" value="&lt;font style=&quot;vertical-align: inherit;&quot;&gt;&lt;font style=&quot;vertical-align: inherit;&quot;&gt;si&lt;/font&gt;&lt;/font&gt;" style="text;html=1;align=center;verticalAlign=middle;resizable=0;points=[];autosize=1;strokeColor=none;fillColor=none;" vertex="1" parent="1">
          <mxGeometry x="760" y="130" width="30" height="30" as="geometry" />
        </mxCell>
        <mxCell id="r9xJ9RGRWZH5357-9bB4-14" value="&lt;font style=&quot;vertical-align: inherit;&quot;&gt;&lt;font style=&quot;vertical-align: inherit;&quot;&gt;no&lt;/font&gt;&lt;/font&gt;" style="text;html=1;align=center;verticalAlign=middle;resizable=0;points=[];autosize=1;strokeColor=none;fillColor=none;" vertex="1" parent="1">
          <mxGeometry x="760" y="258" width="40" height="30" as="geometry" />
        </mxCell>
      </root>
    </mxGraphModel>
  </diagram>
</mxfile>
